<?xml version="1.0" standalone="no"?>
<!DOCTYPE svg PUBLIC "-//W3C//DTD SVG 20010904//EN"
 "http://www.w3.org/TR/2001/REC-SVG-20010904/DTD/svg10.dtd">
<svg version="1.0" xmlns="http://www.w3.org/2000/svg"
 width="191.000000pt" height="191.000000pt" viewBox="0 0 191.000000 191.000000"
 preserveAspectRatio="xMidYMid meet">
<metadata>
Created by potrace 1.14, written by Peter Selinger 2001-2017
</metadata>
<g transform="translate(0.000000,191.000000) scale(0.100000,-0.100000)"
fill="#000000" stroke="none">
<path d="M632 1552 c-8 -2 -12 -36 -12 -101 0 -93 -1 -99 -26 -122 -44 -40
-103 -138 -125 -208 -28 -89 -28 -223 0 -306 54 -163 166 -277 319 -326 62
-20 91 -21 360 -23 162 0 297 1 301 4 3 3 7 22 7 43 l1 37 -116 0 -116 0 49
46 c235 226 207 612 -58 788 -86 57 -182 84 -284 81 -98 -3 -106 -5 -179 -34
l-53 -21 0 69 c0 68 0 69 -28 73 -16 2 -34 2 -40 0z m411 -188 c207 -54 332
-276 280 -498 -54 -233 -297 -368 -517 -286 -228 86 -328 358 -215 584 l24 49
6 -159 c6 -173 8 -183 37 -240 84 -162 303 -215 465 -112 153 97 183 334 62
476 -47 54 -142 101 -215 105 -93 6 -200 -36 -249 -99 l-21 -27 0 71 0 71 46
27 c86 51 194 64 297 38z m2 -177 c192 -99 177 -378 -24 -451 -154 -55 -314
58 -320 227 -4 93 68 198 160 233 43 16 145 12 184 -9z"/>
</g>
</svg>
